<svg width="40" height="49" viewBox="0 0 40 49" fill="none" xmlns="http://www.w3.org/2000/svg">
<path d="M32.244 44.6014L26.1196 37.5703L26.3556 42.3924L23.2837 45.974L32.244 44.6014Z" fill="#F5F5F7"/>
<path d="M27.1004 40.7131L27.0116 40.6969L26.9124 40.6775L26.7102 40.6364L26.3 40.5484C26.0255 40.488 25.7497 40.4235 25.4743 40.3568C24.9237 40.2229 24.3729 40.0782 23.8246 39.9244C22.7276 39.6162 21.641 39.2707 20.5648 38.8879C19.4924 38.5053 18.4303 38.0836 17.3919 37.6177C16.3535 37.1517 15.3346 36.6416 14.3528 36.0786C13.3709 35.5198 12.4264 34.8962 11.5252 34.2119C10.6309 33.5346 9.80039 32.7747 9.04424 31.9419C8.29367 31.1179 7.65157 30.1984 7.13392 29.2063C6.62087 28.2118 6.26784 27.14 6.08818 26.0312C6.04241 25.7542 6.01457 25.4694 5.99398 25.184C5.97338 24.8987 5.96224 24.6131 5.95855 24.3266C5.95351 23.751 5.98141 23.1754 6.0421 22.6027C6.1663 21.4498 6.40138 20.3114 6.74398 19.2041C7.09014 18.086 7.51759 16.9953 8.02278 15.941C8.53051 14.8802 9.09751 13.8494 9.72099 12.8539C10.9671 10.8557 12.4077 8.97638 13.9671 7.20225C14.7471 6.31561 15.5567 5.45605 16.396 4.62354C16.8154 4.20762 17.2418 3.79878 17.6749 3.39701C18.1088 2.99675 18.5486 2.60198 19.0026 2.22395C18.5341 2.5833 18.0788 2.96019 17.6286 3.34338C17.1783 3.72656 16.7362 4.11977 16.2996 4.51948C15.4274 5.31933 14.5813 6.14895 13.7614 7.00833C12.125 8.72654 10.5976 10.5619 9.25226 12.5395C8.57625 13.5292 7.95668 14.5574 7.39663 15.6188C6.83157 16.687 6.3457 17.7962 5.94308 18.9372C5.53655 20.0885 5.24178 21.277 5.063 22.4857C4.97507 23.0943 4.92179 23.7075 4.90343 24.3222C4.89311 24.6298 4.89335 24.9383 4.90415 25.2477C4.91437 25.5567 4.93516 25.8642 4.95876 26.1777C5.0681 27.4331 5.37421 28.662 5.86553 29.8178C6.35953 30.9703 6.9987 32.0523 7.7671 33.0369C8.52747 34.0131 9.3751 34.9157 10.2992 35.7333C11.2151 36.5441 12.1826 37.2929 13.1953 37.9749C14.2017 38.658 15.2428 39.283 16.306 39.8602C17.3692 40.4374 18.4544 40.9673 19.5559 41.4577C20.6575 41.948 21.775 42.3986 22.908 42.8117C23.4745 43.0177 24.0454 43.2147 24.6209 43.4027C24.9086 43.4969 25.1982 43.5878 25.4896 43.6757L25.9319 43.8036L26.1557 43.8675L26.2705 43.8989L26.3956 43.9323L27.1004 40.7131Z" fill="#F5F5F7"/>
</svg>
