<svg width="15" height="15" viewBox="0 0 15 15" fill="none" xmlns="http://www.w3.org/2000/svg">
<path d="M5.06836 1.63476C4.49414 1.78125 4.04297 2.30273 4.04297 2.82422C4.04297 2.91211 3.90234 2.92383 2.6543 2.94141C1.31836 2.95898 1.24805 2.96484 0.984375 3.09961C0.650391 3.26953 0.345703 3.57422 0.164062 3.92578L0.0292969 4.18945V8.17383V12.1582L0.164062 12.4219C0.357422 12.791 0.667969 13.0957 1.01953 13.2539L1.31836 13.3887H7.5H13.6816L13.9863 13.248C14.3789 13.0723 14.7188 12.709 14.877 12.2812C15 11.9531 15 11.8828 15 8.17969C15 4.99219 14.9883 4.37109 14.9121 4.11914C14.8008 3.74414 14.4141 3.30469 14.0273 3.10547C13.752 2.96484 13.6992 2.95898 12.3516 2.94141L10.9688 2.91797L10.9277 2.70703C10.8457 2.27344 10.6113 1.94531 10.2246 1.74023C9.99609 1.61719 9.92578 1.61133 7.61719 1.59961C6.31055 1.59375 5.16797 1.61133 5.06836 1.63476ZM9.99609 2.47851C10.1367 2.60156 10.1602 2.67187 10.1895 3.07031C10.2188 3.42187 10.2539 3.54492 10.3418 3.60937C10.4297 3.67383 10.7637 3.69141 11.9766 3.69141C13.377 3.69141 13.5176 3.70312 13.7402 3.80859C13.8926 3.88476 14.0273 4.00781 14.1094 4.1543L14.2383 4.38281L14.2266 8.22656C14.209 11.9941 14.209 12.0645 14.0859 12.2227C14.0215 12.3105 13.8926 12.4395 13.8047 12.5039C13.6465 12.627 13.6113 12.627 7.5 12.627C1.38867 12.627 1.35352 12.627 1.19531 12.5039C1.10742 12.4395 0.978516 12.3105 0.914062 12.2227C0.791016 12.0645 0.791016 12.0117 0.791016 8.17383C0.791016 4.33594 0.791016 4.2832 0.914062 4.125C1.21289 3.7207 1.18945 3.72656 3 3.69141C4.86328 3.65625 4.80469 3.67383 4.80469 3.1582C4.80469 2.8125 4.88672 2.57812 5.05664 2.44922C5.17383 2.35547 5.39648 2.34375 7.51172 2.34375H9.83789L9.99609 2.47851Z" fill="black"/>
<path d="M12.3809 4.69932C12.123 4.76378 11.8945 5.05675 11.8945 5.3087C11.8945 5.85948 12.416 6.19346 12.8906 5.94737C13.1367 5.81846 13.2422 5.63682 13.2422 5.32628C13.2422 4.85753 12.8496 4.57628 12.3809 4.69932Z" fill="black"/>
<path d="M6.62115 4.77549C5.29693 5.15049 4.35357 6.15244 4.06646 7.50596C3.7149 9.1583 4.76958 10.9806 6.38091 11.4903C6.91997 11.6603 7.76372 11.7013 8.28521 11.5782C9.62701 11.2618 10.6407 10.2188 10.9278 8.86533C11.0918 8.08604 10.9922 7.36533 10.6114 6.58604C10.2247 5.80674 9.48638 5.15635 8.65435 4.86338C8.17388 4.6876 7.09576 4.64658 6.62115 4.77549ZM8.37896 5.60752C9.66802 6.03526 10.4708 7.44737 10.1719 8.74815C9.74419 10.5938 7.72271 11.4669 6.0938 10.5118C4.04888 9.31651 4.50005 6.17588 6.79693 5.54893C7.25396 5.42588 7.89849 5.44932 8.37896 5.60752Z" fill="black"/>
</svg>
