<svg width="15" height="15" viewBox="0 0 15 15" fill="none" xmlns="http://www.w3.org/2000/svg">
<g clip-path="url(#clip0_172_644)">
<path d="M12.46 0.117187C12.2314 0.17578 12.126 0.225585 11.9238 0.360351C11.7949 0.445312 5.11816 7.08691 5.00684 7.24219C4.94531 7.32715 4.04297 10.5293 4.04297 10.6641C4.04297 10.8281 4.2334 11.0156 4.40039 11.0156C4.5293 11.0156 7.73438 10.1104 7.81641 10.0518C7.86035 10.0195 9.40723 8.48145 11.2559 6.62988C13.708 4.1748 14.6455 3.2168 14.7334 3.0791C14.9502 2.73926 15.041 2.28809 14.9736 1.88672C14.9531 1.77246 14.8857 1.5791 14.8184 1.43555C14.7129 1.21289 14.6572 1.14551 14.2852 0.773437C13.9131 0.401366 13.8457 0.348632 13.623 0.240234C13.2275 0.0498038 12.8613 0.0117179 12.46 0.117187ZM13.3096 0.914062C13.4707 0.993163 14.0654 1.59082 14.1533 1.75781C14.2119 1.86914 14.2236 1.93359 14.2236 2.16797C14.2236 2.52246 14.1709 2.63672 13.8369 2.98535L13.5967 3.2373L12.709 2.34961L11.8213 1.46191L12.0791 1.21582C12.2227 1.08105 12.3955 0.943359 12.4658 0.908202C12.7207 0.785155 13.0605 0.788085 13.3096 0.914062ZM12.1875 2.88574L13.0518 3.75L10.3184 6.48047L7.58789 9.21387L6.72363 8.34961C6.24902 7.875 5.85938 7.47363 5.85938 7.45605C5.85938 7.41797 11.2559 2.02148 11.2939 2.02148C11.3115 2.02148 11.7129 2.41113 12.1875 2.88574ZM6.84961 9.57715C6.74121 9.6123 4.96582 10.1016 4.95996 10.0986C4.95703 10.0957 5.04785 9.76172 5.15918 9.36035C5.27051 8.95605 5.39062 8.52539 5.42578 8.39648L5.4873 8.16797L6.18457 8.86523C6.57129 9.25195 6.86719 9.57129 6.84961 9.57715Z" fill="black"/>
<path d="M1.40625 1.57041C0.793945 1.73447 0.322266 2.17393 0.105469 2.7833L0.0146484 3.03232V8.23252C0.0146484 13.1925 0.0175781 13.4415 0.0673828 13.6056C0.175781 13.9571 0.292969 14.1534 0.556641 14.4171C0.741211 14.6017 0.861328 14.6954 1.0166 14.7716C1.44434 14.9854 1.02539 14.9737 7.20703 14.9649L12.7588 14.9562L12.9551 14.88C13.5322 14.6544 13.9395 14.2413 14.1299 13.6817C14.1943 13.4942 14.1943 13.4649 14.2031 11.6017C14.2119 9.90537 14.209 9.70322 14.165 9.62119C14.1035 9.504 13.9775 9.43369 13.8311 9.43369C13.7344 9.43369 13.6875 9.4542 13.5996 9.5333L13.4912 9.63291L13.4766 11.4903C13.4619 13.339 13.4619 13.3448 13.3945 13.5118C13.2744 13.8106 13.0488 14.0362 12.75 14.1563L12.583 14.2237L7.20996 14.2325C3.66211 14.2354 1.78125 14.2296 1.67285 14.2091C1.32129 14.1446 1.00781 13.9044 0.861328 13.5851L0.776367 13.4034V8.24717V3.09092L0.861328 2.90635C0.969727 2.67197 1.21875 2.43467 1.45605 2.33799L1.62598 2.27061L3.47168 2.25596C5.53418 2.23838 5.41699 2.25303 5.52246 2.03037C5.58984 1.88975 5.56055 1.75205 5.43164 1.62607L5.3291 1.52354L3.44824 1.52647C1.88672 1.52647 1.54102 1.53525 1.40625 1.57041Z" fill="black"/>
</g>
<defs>
<clipPath id="clip0_172_644">
<rect width="15" height="15" fill="white"/>
</clipPath>
</defs>
</svg>
